<svg width="29" height="33" viewBox="0 0 29 33" fill="none" xmlns="http://www.w3.org/2000/svg">
<path fill-rule="evenodd" clip-rule="evenodd" d="M28.9285 9.33701L28.9285 28.7336C28.9285 29.8166 28.5003 30.8552 27.7379 31.621C26.9756 32.3868 25.9417 32.8171 24.8635 32.8171L24.8635 30.7753C25.4026 30.7753 25.9196 30.5602 26.3007 30.1773C26.6819 29.7944 26.896 29.2751 26.896 28.7336L26.896 9.33701L22.8311 9.33701C22.0225 9.33701 21.247 9.01435 20.6753 8.44C20.1035 7.86564 19.7823 7.08666 19.7823 6.2744L19.7823 2.19091L8.60356 2.19091C8.06451 2.19091 7.54754 2.40602 7.16637 2.78893C6.7852 3.17183 6.57107 3.69115 6.57107 4.23266L6.57107 22.6083L4.53857 22.6083L4.53857 4.23266C4.53857 3.14965 4.96684 2.111 5.72918 1.3452C6.49151 0.579393 7.52546 0.14917 8.60356 0.14917L19.7823 0.14917L28.9285 9.33701ZM12.9958 28.0516L12.9958 29.1174C12.9958 29.6401 12.9165 30.077 12.758 30.4262C12.6231 30.7492 12.3952 31.0243 12.1035 31.2163C11.8162 31.3905 11.4858 31.4797 11.1503 31.4736C10.8135 31.4798 10.4817 31.3906 10.193 31.2163C9.90372 31.0236 9.67748 30.7495 9.54258 30.4282C9.37161 30.0132 9.29055 29.5664 9.30477 29.1174L9.30477 28.0516C9.30477 27.5269 9.38608 27.09 9.54258 26.7429C9.67714 26.4209 9.90341 26.146 10.193 25.9527C10.4804 25.7747 10.8127 25.6833 11.1503 25.6893C11.508 25.6893 11.8251 25.7771 12.1035 25.9548C12.3949 26.1462 12.6227 26.4206 12.758 26.7429C12.9165 27.09 12.9958 27.5269 12.9958 28.0516ZM14.6279 29.1113L14.6279 28.0639C14.6279 27.2941 14.4897 26.6347 14.2112 26.0793C13.9502 25.5392 13.533 25.0909 13.0141 24.793C12.4978 24.4929 11.8759 24.3438 11.1503 24.3438C10.4287 24.3438 9.80477 24.4929 9.28039 24.793C8.76089 25.0873 8.34323 25.534 8.08324 26.0732C7.80682 26.6265 7.66658 27.2901 7.66658 28.0639L7.66658 29.1113C7.66658 29.8769 7.80682 30.5405 8.08324 31.0979C8.3617 31.6512 8.76007 32.0779 9.28242 32.3781C9.80477 32.6721 10.4287 32.8191 11.1523 32.8191C11.8779 32.8191 12.4978 32.6721 13.0141 32.3781C13.5344 32.0779 13.9328 31.6512 14.2133 31.0979C14.4897 30.5385 14.6279 29.8769 14.6279 29.1113ZM0.473572 24.499L0.473571 32.666L3.43899 32.666C4.25605 32.666 4.93287 32.5026 5.46945 32.18C6.01245 31.8537 6.43646 31.3604 6.67879 30.7733C6.94301 30.1607 7.07716 29.4216 7.07716 28.56C7.07716 27.7025 6.94505 26.9715 6.67879 26.3652C6.43879 25.7844 6.01809 25.2973 5.47961 24.9768C4.94507 24.6583 4.26418 24.499 3.43899 24.499L0.473572 24.499ZM2.08128 25.8159L3.22557 25.8159C3.72963 25.8159 4.1402 25.918 4.46337 26.1263C4.79881 26.3466 5.05189 26.6727 5.18287 27.0532C5.34344 27.4636 5.4227 27.9761 5.4227 28.5907C5.42901 28.9979 5.38255 29.4042 5.28449 29.7994C5.21203 30.111 5.07642 30.4043 4.88612 30.661C4.70928 30.8899 4.47499 31.0675 4.20727 31.1755C3.89358 31.2934 3.56042 31.3502 3.22557 31.3429L2.07925 31.3429L2.07925 25.8139L2.08128 25.8159ZM17.1665 26.8021C17.0172 27.216 16.9462 27.6544 16.9571 28.0945L16.9571 29.1052C16.9571 29.6074 17.0262 30.0342 17.1665 30.3853C17.2832 30.708 17.4944 30.9877 17.7722 31.1877C18.0621 31.3725 18.4005 31.4656 18.7437 31.4552C19.0258 31.4617 19.3053 31.4 19.5587 31.2755C19.7855 31.1597 19.9771 30.9848 20.1136 30.7692C20.2515 30.5444 20.3331 30.2894 20.3514 30.026L21.9063 30.026L21.9063 30.1812C21.8869 30.6745 21.7275 31.152 21.4469 31.5573C21.1685 31.9534 20.7965 32.2617 20.329 32.4843C19.8282 32.7146 19.2823 32.829 18.7315 32.8191C17.9998 32.8191 17.3819 32.6721 16.8738 32.3781C16.3665 32.0797 15.9617 31.6331 15.7132 31.0979C15.449 30.5426 15.3189 29.879 15.3189 29.1052L15.3189 28.0884C15.3189 27.3146 15.4531 26.649 15.7193 26.0916C15.9836 25.5321 16.3718 25.1013 16.8799 24.7991C17.3921 24.4949 18.01 24.3438 18.7315 24.3438C19.1766 24.3438 19.5872 24.4092 19.9652 24.5419C20.3453 24.6685 20.6766 24.8543 20.9591 25.0972C21.2445 25.3411 21.4762 25.6421 21.6392 25.981C21.8023 26.3199 21.8933 26.6893 21.9063 27.0655L21.9063 27.2145L20.3514 27.2145C20.3325 26.9401 20.2489 26.6742 20.1075 26.4387C19.9746 26.2133 19.7827 26.029 19.5526 25.9058C19.3046 25.7705 19.0259 25.7023 18.7437 25.7077C18.4006 25.6988 18.0632 25.7972 17.7783 25.9895C17.4995 26.1943 17.2868 26.4769 17.1665 26.8021Z" fill="#EDE1D7"/>
</svg>
