<svg width="32" height="32" viewBox="0 0 32 32" fill="none" xmlns="http://www.w3.org/2000/svg">
<path d="M18.8482 4.48175H18.3482V4.50669L18.3506 4.5315L18.8482 4.48175ZM18.8482 4.48173H19.3482V4.45679L19.3457 4.43198L18.8482 4.48173ZM22.1305 5.84134L22.4471 6.22832V6.22832L22.1305 5.84134ZM23.525 5.03441L23.5001 5.53379L23.525 5.03441ZM24.8222 5.96598L24.4687 6.31953L24.8222 5.96598ZM26.0338 7.17753L26.3873 6.82397V6.82397L26.0338 7.17753ZM26.1584 9.86931L26.5454 10.1859L26.1584 9.86931ZM27.518 13.1516L27.4683 13.6492L27.518 13.1516ZM29.0747 13.5672L29.4455 13.2317L29.4455 13.2316L29.0747 13.5672ZM29.0747 18.4325L29.4455 18.768L29.4455 18.768L29.0747 18.4325ZM27.5182 18.848L27.4684 18.3505L27.5182 18.848ZM26.1586 22.13L26.5456 21.8133L26.1586 22.13ZM23.5251 26.9647L23.55 27.4641L23.5251 26.9647ZM22.1305 26.1577L21.8139 26.5447H21.8139L22.1305 26.1577ZM19.649 24.8087L19.4576 24.3467H19.4576L19.649 24.8087ZM18.8482 27.5177L18.3507 27.468V27.468L18.8482 27.5177ZM18.4326 29.0746L18.7681 29.4454H18.7681L18.4326 29.0746ZM13.5673 29.0746L13.2318 29.4453L13.2318 29.4454L13.5673 29.0746ZM13.1518 27.5179L12.6542 27.5677L13.1518 27.5179ZM12.351 24.8092L12.5423 24.3473H12.5423L12.351 24.8092ZM9.86939 26.1583L10.186 26.5453H10.186L9.86939 26.1583ZM8.47481 26.9653L8.4499 27.4647H8.4499L8.47481 26.9653ZM7.17759 26.0337L6.82404 26.3873L7.17759 26.0337ZM5.96605 24.8222L6.3196 24.4686H6.3196L5.96605 24.8222ZM5.84142 22.1304L6.2284 22.447H6.2284L5.84142 22.1304ZM7.19051 19.6488L6.72857 19.8402H6.72857L7.19051 19.6488ZM4.48187 18.848L4.53162 18.3505H4.53162L4.48187 18.848ZM2.92517 18.4325L2.55445 18.768H2.55445L2.92517 18.4325ZM2.66663 16.8565H3.16663H2.66663ZM2.66663 15.1431H2.16663H2.66663ZM2.92517 13.5672L2.55445 13.2316L2.55445 13.2316L2.92517 13.5672ZM4.48203 13.1516L4.53178 13.6491H4.53178L4.48203 13.1516ZM5.84163 9.86889L5.45465 10.1855L5.84163 9.86889ZM9.86945 5.84077L10.1861 5.45379L9.86945 5.84077ZM13.1518 4.48158L13.6493 4.53133V4.53133L13.1518 4.48158ZM13.5673 2.92505L13.2318 2.55432L13.2318 2.55433L13.5673 2.92505ZM18.4326 2.92505L18.0971 3.29578V3.29578L18.4326 2.92505ZM19.3482 4.48175V4.48173H18.3482V4.48175H19.3482ZM19.8403 6.72846C19.7907 6.70792 19.688 6.64784 19.5883 6.2489C19.4889 5.851 19.43 5.2753 19.3457 4.432L18.3506 4.5315C18.4316 5.34131 18.4967 6.00544 18.6181 6.49134C18.7393 6.9762 18.9544 7.44389 19.4576 7.65234L19.8403 6.72846ZM21.8138 5.45437C21.1579 5.99103 20.7092 6.35648 20.3575 6.56753C20.0049 6.77912 19.8899 6.74899 19.8403 6.72846L19.4576 7.65234C19.9608 7.86078 20.4436 7.68214 20.8721 7.42497C21.3016 7.16725 21.8172 6.74368 22.4471 6.22832L21.8138 5.45437ZM23.5499 4.53503C23.2153 4.51834 22.932 4.63686 22.6708 4.80019C22.4211 4.95632 22.1401 5.1874 21.8138 5.45437L22.4471 6.22832C22.7939 5.94454 23.0179 5.76255 23.2009 5.6481C23.3725 5.54085 23.4499 5.53128 23.5001 5.53379L23.5499 4.53503ZM25.1758 5.61243C24.8811 5.31775 24.6269 5.06216 24.3953 4.88345C24.1524 4.69602 23.8835 4.55167 23.5499 4.53503L23.5001 5.53379C23.5513 5.53634 23.6269 5.55365 23.7844 5.67514C23.9531 5.80536 24.1551 6.00596 24.4687 6.31953L25.1758 5.61243ZM26.3873 6.82397L25.1758 5.61243L24.4687 6.31953L25.6802 7.53108L26.3873 6.82397ZM27.4647 8.44984C27.4481 8.11625 27.3037 7.84734 27.1163 7.60445C26.9376 7.37287 26.682 7.11865 26.3873 6.82397L25.6802 7.53108C25.9938 7.84466 26.1944 8.04663 26.3246 8.21538C26.4461 8.37283 26.4634 8.4484 26.466 8.49965L27.4647 8.44984ZM26.5454 10.1859C26.8123 9.85963 27.0434 9.5787 27.1996 9.32897C27.3629 9.06774 27.4814 8.78449 27.4647 8.44984L26.466 8.49965C26.4685 8.54983 26.4589 8.62729 26.3516 8.79884C26.2372 8.98189 26.0552 9.20583 25.7714 9.55269L26.5454 10.1859ZM25.2713 12.1595C25.2507 12.1099 25.2206 11.9948 25.4322 11.6423C25.6432 11.2906 26.0087 10.8419 26.5454 10.1859L25.7714 9.55269C25.2561 10.1826 24.8325 10.6982 24.5748 11.1277C24.3176 11.5562 24.1389 12.039 24.3474 12.5422L25.2713 12.1595ZM27.5678 12.6541C26.7245 12.5698 26.1487 12.5109 25.7508 12.4115C25.3519 12.3118 25.2918 12.2091 25.2713 12.1595L24.3474 12.5422C24.5558 13.0454 25.0235 13.2605 25.5084 13.3816C25.9943 13.5031 26.6584 13.5682 27.4683 13.6492L27.5678 12.6541ZM29.4455 13.2316C29.2206 12.9832 28.9365 12.8667 28.6363 12.7975C28.3493 12.7313 27.9873 12.6961 27.5678 12.6541L27.4683 13.6492C27.9142 13.6938 28.2013 13.7234 28.4116 13.7719C28.6088 13.8174 28.6703 13.8654 28.704 13.9027L29.4455 13.2316ZM29.8333 15.1431C29.8333 14.7264 29.8343 14.3659 29.7969 14.0758C29.7577 13.7715 29.6696 13.4793 29.4455 13.2317L28.704 13.9027C28.7385 13.9407 28.7797 14.0064 28.8051 14.2036C28.8323 14.415 28.8333 14.6997 28.8333 15.1431H29.8333ZM29.8333 16.8565V15.1431H28.8333V16.8565H29.8333ZM29.4455 18.768C29.6696 18.5204 29.7577 18.2282 29.7969 17.9239C29.8343 17.6338 29.8333 17.2733 29.8333 16.8565H28.8333C28.8333 17.3 28.8323 17.5847 28.8051 17.7961C28.7797 17.9933 28.7385 18.059 28.704 18.097L29.4455 18.768ZM27.5679 19.3455C27.9874 19.3036 28.3494 19.2683 28.6364 19.2022C28.9366 19.1329 29.2206 19.0165 29.4455 18.768L28.704 18.097C28.6703 18.1343 28.6088 18.1823 28.4117 18.2277C28.2013 18.2762 27.9143 18.3059 27.4684 18.3505L27.5679 19.3455ZM25.2718 19.8401C25.2923 19.7905 25.3524 19.6878 25.7513 19.5882C26.1491 19.4887 26.7247 19.4299 27.5679 19.3455L27.4684 18.3505C26.6587 18.4315 25.9947 18.4966 25.5088 18.618C25.024 18.7392 24.5563 18.9542 24.3479 19.4574L25.2718 19.8401ZM26.5456 21.8133C26.009 21.1575 25.6436 20.7089 25.4326 20.3573C25.2211 20.0048 25.2512 19.8897 25.2718 19.8401L24.3479 19.4574C24.1395 19.9606 24.318 20.4434 24.5752 20.8719C24.8329 21.3012 25.2564 21.8168 25.7716 22.4466L26.5456 21.8133ZM27.4648 23.5492C27.4815 23.2146 27.363 22.9314 27.1997 22.6702C27.0435 22.4205 26.8125 22.1396 26.5456 21.8133L25.7716 22.4466C26.0554 22.7934 26.2373 23.0173 26.3517 23.2003C26.459 23.3718 26.4685 23.4492 26.466 23.4994L27.4648 23.5492ZM26.3874 25.1751C26.6821 24.8804 26.9377 24.6262 27.1164 24.3946C27.3038 24.1517 27.4481 23.8828 27.4648 23.5492L26.466 23.4994C26.4635 23.5507 26.4462 23.6263 26.3247 23.7837C26.1945 23.9525 25.9939 24.1544 25.6803 24.468L26.3874 25.1751ZM25.1758 26.3867L26.3874 25.1751L25.6803 24.468L24.4687 25.6795L25.1758 26.3867ZM23.55 27.4641C23.8836 27.4474 24.1525 27.3031 24.3954 27.1156C24.6269 26.9369 24.8812 26.6813 25.1758 26.3867L24.4687 25.6795C24.1552 25.9931 23.9532 26.1937 23.7844 26.3239C23.627 26.4454 23.5514 26.4627 23.5002 26.4653L23.55 27.4641ZM21.8139 26.5447C22.1402 26.8117 22.4211 27.0428 22.6708 27.1989C22.9321 27.3622 23.2153 27.4807 23.55 27.4641L23.5002 26.4653C23.45 26.4678 23.3725 26.4582 23.201 26.351C23.0179 26.2365 22.794 26.0545 22.4471 25.7708L21.8139 26.5447ZM19.8403 25.2706C19.8899 25.2501 20.005 25.22 20.3576 25.4316C20.7093 25.6426 21.158 26.008 21.8139 26.5447L22.4471 25.7708C21.8173 25.2554 21.3016 24.8318 20.8722 24.5741C20.4436 24.3169 19.9609 24.1383 19.4576 24.3467L19.8403 25.2706ZM19.3457 27.5675C19.43 26.7241 19.4889 26.1482 19.5884 25.7503C19.6881 25.3512 19.7908 25.2912 19.8403 25.2706L19.4576 24.3467C18.9544 24.5552 18.7394 25.023 18.6182 25.5079C18.4968 25.9938 18.4316 26.658 18.3507 27.468L19.3457 27.5675ZM18.7681 29.4454C19.0166 29.2205 19.1331 28.9364 19.2023 28.6362C19.2685 28.3491 19.3037 27.9871 19.3457 27.5675L18.3507 27.468C18.3061 27.914 18.2764 28.2011 18.2279 28.4115C18.1824 28.6087 18.1344 28.6702 18.0971 28.7039L18.7681 29.4454ZM16.8567 29.8332C17.2734 29.8332 17.6339 29.8341 17.924 29.7968C18.2283 29.7575 18.5205 29.6695 18.7681 29.4454L18.0971 28.7039C18.0591 28.7383 17.9934 28.7795 17.7962 28.805C17.5848 28.8322 17.3001 28.8332 16.8567 28.8332V29.8332ZM15.1433 29.8332H16.8567V28.8332H15.1433V29.8332ZM13.2318 29.4454C13.4794 29.6695 13.7716 29.7575 14.0759 29.7968C14.366 29.8341 14.7265 29.8332 15.1433 29.8332V28.8332C14.6998 28.8332 14.4151 28.8322 14.2037 28.805C14.0065 28.7795 13.9408 28.7383 13.9028 28.7039L13.2318 29.4454ZM12.6542 27.5677C12.6962 27.9872 12.7314 28.3492 12.7976 28.6362C12.8669 28.9364 12.9833 29.2205 13.2318 29.4453L13.9028 28.7039C13.8655 28.6702 13.8175 28.6086 13.7721 28.4115C13.7235 28.2011 13.6939 27.9141 13.6493 27.4682L12.6542 27.5677ZM12.1596 25.2711C12.2092 25.2917 12.3119 25.3518 12.4116 25.7507C12.511 26.1486 12.5699 26.7243 12.6542 27.5677L13.6493 27.4682C13.5683 26.6583 13.5032 25.9942 13.3818 25.5083C13.2606 25.0234 13.0456 24.5557 12.5423 24.3473L12.1596 25.2711ZM10.186 26.5453C10.842 26.0086 11.2907 25.6431 11.6424 25.4321C11.995 25.2205 12.1101 25.2506 12.1596 25.2711L12.5423 24.3473C12.0391 24.1388 11.5563 24.3175 11.1278 24.5747C10.6983 24.8324 10.1827 25.256 9.55277 25.7713L10.186 26.5453ZM8.4499 27.4647C8.78456 27.4814 9.0678 27.3628 9.32904 27.1995C9.57878 27.0434 9.8597 26.8123 10.186 26.5453L9.55277 25.7713C9.20591 26.0551 8.98196 26.2371 8.79891 26.3516C8.62735 26.4588 8.54989 26.4684 8.49971 26.4659L8.4499 27.4647ZM6.82404 26.3873C7.11871 26.6819 7.37293 26.9375 7.60452 27.1162C7.84741 27.3037 8.11631 27.448 8.4499 27.4647L8.49971 26.4659C8.44847 26.4633 8.37289 26.446 8.21544 26.3245C8.04669 26.1943 7.84472 25.9937 7.53114 25.6802L6.82404 26.3873ZM5.61249 25.1757L6.82404 26.3873L7.53114 25.6802L6.3196 24.4686L5.61249 25.1757ZM4.53509 23.5499C4.55173 23.8834 4.69609 24.1523 4.88351 24.3952C5.06222 24.6268 5.31782 24.881 5.61249 25.1757L6.3196 24.4686C6.00602 24.155 5.80542 23.9531 5.67521 23.7843C5.55371 23.6269 5.53641 23.5513 5.53385 23.5L4.53509 23.5499ZM5.45445 21.8138C5.18747 22.1401 4.95639 22.421 4.80025 22.6707C4.63693 22.9319 4.5184 23.2152 4.53509 23.5499L5.53385 23.5C5.53135 23.4499 5.54091 23.3724 5.64817 23.2008C5.76262 23.0178 5.94461 22.7938 6.2284 22.447L5.45445 21.8138ZM6.72857 19.8402C6.74911 19.8897 6.77923 20.0048 6.56763 20.3574C6.35658 20.7091 5.99112 21.1578 5.45444 21.8138L6.2284 22.447C6.74377 21.8171 7.16735 21.3015 7.42507 20.872C7.68225 20.4435 7.8609 19.9607 7.65245 19.4575L6.72857 19.8402ZM4.43212 19.3455C5.27541 19.4299 5.85112 19.4888 6.24901 19.5882C6.64795 19.6879 6.70803 19.7906 6.72857 19.8402L7.65245 19.4575C7.444 18.9542 6.97632 18.7392 6.49146 18.618C6.00555 18.4966 5.34143 18.4315 4.53162 18.3505L4.43212 19.3455ZM2.55445 18.768C2.77928 19.0165 3.06338 19.1329 3.36358 19.2022C3.65058 19.2684 4.01261 19.3036 4.43212 19.3455L4.53162 18.3505C4.08569 18.3059 3.79865 18.2763 3.5883 18.2277C3.39115 18.1823 3.32961 18.1343 3.2959 18.097L2.55445 18.768ZM2.16663 16.8565C2.16663 17.2733 2.16565 17.6338 2.20305 17.9239C2.24226 18.2282 2.33033 18.5204 2.55445 18.768L3.2959 18.097C3.26147 18.059 3.22026 17.9933 3.19484 17.7961C3.1676 17.5847 3.16663 17.3 3.16663 16.8565H2.16663ZM2.16663 15.1431L2.16663 16.8565H3.16663L3.16663 15.1431H2.16663ZM2.55445 13.2316C2.33033 13.4793 2.24226 13.7715 2.20305 14.0758C2.16565 14.3659 2.16663 14.7264 2.16663 15.1431H3.16663C3.16663 14.6997 3.1676 14.415 3.19484 14.2036C3.22026 14.0064 3.26147 13.9407 3.2959 13.9027L2.55445 13.2316ZM4.43228 12.6541C4.01272 12.6961 3.65065 12.7313 3.36363 12.7975C3.06341 12.8667 2.77929 12.9832 2.55445 13.2316L3.2959 13.9027C3.3296 13.8654 3.39115 13.8174 3.58833 13.7719C3.79872 13.7234 4.0858 13.6937 4.53178 13.6491L4.43228 12.6541ZM6.72907 12.1595C6.70854 12.209 6.64846 12.3117 6.24944 12.4114C5.85148 12.5109 5.27569 12.5698 4.43228 12.6541L4.53178 13.6491C5.34171 13.5682 6.00591 13.503 6.49186 13.3816C6.97676 13.2604 7.4445 13.0454 7.65295 12.5422L6.72907 12.1595ZM5.45465 10.1855C5.99143 10.8416 6.35696 11.2904 6.56806 11.6421C6.77974 11.9948 6.7496 12.1099 6.72907 12.1595L7.65295 12.5422C7.86141 12.0389 7.6827 11.5561 7.42549 11.1275C7.16772 10.698 6.74407 10.1823 6.22861 9.55227L5.45465 10.1855ZM4.53515 8.44923C4.51846 8.78391 4.63701 9.06717 4.80035 9.32842C4.95651 9.57818 5.18763 9.85914 5.45465 10.1855L6.22861 9.55227C5.94477 9.20535 5.76273 8.98136 5.64826 8.79827C5.54097 8.62668 5.53141 8.5492 5.53391 8.49904L4.53515 8.44923ZM5.61255 6.82337C5.31788 7.11804 5.06228 7.37226 4.88357 7.60385C4.69615 7.84674 4.55179 8.11564 4.53515 8.44923L5.53391 8.49904C5.53647 8.4478 5.55377 8.37222 5.67527 8.21477C5.80548 8.04602 6.00608 7.84405 6.31966 7.53048L5.61255 6.82337ZM6.82409 5.61182L5.61255 6.82337L6.31966 7.53048L7.5312 6.31893L6.82409 5.61182ZM8.44996 4.53442C8.11637 4.55106 7.84747 4.69542 7.60458 4.88285C7.37299 5.06156 7.11877 5.31715 6.82409 5.61182L7.5312 6.31893C7.84478 6.00535 8.04675 5.80476 8.2155 5.67454C8.37295 5.55304 8.44852 5.53574 8.49977 5.53318L8.44996 4.53442ZM10.1861 5.45379C9.85976 5.18681 9.57884 4.95573 9.3291 4.79959C9.06786 4.63626 8.78462 4.51773 8.44996 4.53442L8.49977 5.53318C8.54995 5.53068 8.62741 5.54025 8.79897 5.64751C8.98202 5.76195 9.20597 5.94395 9.55283 6.22775L10.1861 5.45379ZM12.1597 6.72793C12.1101 6.74847 11.995 6.7786 11.6424 6.56699C11.2908 6.35594 10.842 5.99047 10.1861 5.45379L9.55283 6.22775C10.1827 6.74312 10.6984 7.1667 11.1278 7.42443C11.5564 7.68161 12.0391 7.86026 12.5424 7.65181L12.1597 6.72793ZM12.6543 4.43183C12.5699 5.27501 12.5111 5.85062 12.4117 6.24845C12.312 6.64731 12.2093 6.70739 12.1597 6.72793L12.5424 7.65181C13.0456 7.44338 13.2606 6.97574 13.3818 6.49091C13.5032 6.00506 13.5683 5.34102 13.6493 4.53133L12.6543 4.43183ZM13.2318 2.55433C12.9833 2.77915 12.8669 3.06322 12.7976 3.36341C12.7315 3.65038 12.6962 4.01238 12.6543 4.43183L13.6493 4.53133C13.6939 4.08546 13.7235 3.79846 13.7721 3.58814C13.8175 3.39103 13.8655 3.3295 13.9028 3.29578L13.2318 2.55433ZM15.1433 2.1665C14.7265 2.1665 14.366 2.16553 14.0759 2.20292C13.7716 2.24214 13.4794 2.33021 13.2318 2.55432L13.9028 3.29578C13.9408 3.26135 14.0065 3.22014 14.2037 3.19472C14.4151 3.16748 14.6998 3.1665 15.1433 3.1665V2.1665ZM16.8566 2.1665H15.1433V3.1665H16.8566V2.1665ZM18.7681 2.55432C18.5205 2.33021 18.2283 2.24214 17.924 2.20292C17.6339 2.16553 17.2734 2.1665 16.8566 2.1665V3.1665C17.3001 3.1665 17.5848 3.16748 17.7962 3.19472C17.9934 3.22014 18.0591 3.26135 18.0971 3.29578L18.7681 2.55432ZM19.3457 4.43198C19.3037 4.01248 19.2685 3.65045 19.2023 3.36346C19.1331 3.06325 19.0166 2.77916 18.7681 2.55432L18.0971 3.29578C18.1344 3.32949 18.1824 3.39103 18.2279 3.58817C18.2764 3.79853 18.306 4.08556 18.3506 4.53148L19.3457 4.43198ZM20.8333 15.9998C20.8333 18.6692 18.6693 20.8332 16 20.8332V21.8332C19.2216 21.8332 21.8333 19.2215 21.8333 15.9998H20.8333ZM16 11.1665C18.6693 11.1665 20.8333 13.3305 20.8333 15.9998H21.8333C21.8333 12.7782 19.2216 10.1665 16 10.1665V11.1665ZM11.1666 15.9998C11.1666 13.3305 13.3306 11.1665 16 11.1665V10.1665C12.7783 10.1665 10.1666 12.7782 10.1666 15.9998H11.1666ZM16 20.8332C13.3306 20.8332 11.1666 18.6692 11.1666 15.9998H10.1666C10.1666 19.2215 12.7783 21.8332 16 21.8332V20.8332Z" fill="#7E1A24"/>
</svg>
