<svg width="40" height="41" viewBox="0 0 40 41" fill="none" xmlns="http://www.w3.org/2000/svg">
<g filter="url(#filter0_d_182_11833)">
<path d="M26.1667 13.3332C26.1667 16.7389 23.4058 19.4998 20 19.4998C16.5943 19.4998 13.8334 16.7389 13.8334 13.3332C13.8334 9.92741 16.5943 7.1665 20 7.1665C23.4058 7.1665 26.1667 9.92741 26.1667 13.3332Z" stroke="#7E1A24" stroke-linecap="round"/>
<path d="M8.93264 25.8303C9.89941 23.6006 12.2481 22.5 14.6783 22.5H25.3217C27.7519 22.5 30.1006 23.6006 31.0674 25.8303C31.7198 27.335 32.3234 29.2762 32.4675 31.5001C32.5032 32.0512 32.0523 32.5 31.5 32.5H8.5C7.94772 32.5 7.49676 32.0512 7.53248 31.5001C7.67664 29.2762 8.28023 27.335 8.93264 25.8303Z" stroke="#7E1A24" stroke-linecap="round"/>
</g>
<defs>
<filter id="filter0_d_182_11833" x="-4" y="0" width="48" height="48" filterUnits="userSpaceOnUse" color-interpolation-filters="sRGB">
<feFlood flood-opacity="0" result="BackgroundImageFix"/>
<feColorMatrix in="SourceAlpha" type="matrix" values="0 0 0 0 0 0 0 0 0 0 0 0 0 0 0 0 0 0 127 0" result="hardAlpha"/>
<feOffset dy="4"/>
<feGaussianBlur stdDeviation="2"/>
<feComposite in2="hardAlpha" operator="out"/>
<feColorMatrix type="matrix" values="0 0 0 0 0 0 0 0 0 0 0 0 0 0 0 0 0 0 0.25 0"/>
<feBlend mode="normal" in2="BackgroundImageFix" result="effect1_dropShadow_182_11833"/>
<feBlend mode="normal" in="SourceGraphic" in2="effect1_dropShadow_182_11833" result="shape"/>
</filter>
</defs>
</svg>
